<svg xmlns="http://www.w3.org/2000/svg" width="820" height="520" viewBox="0 0 820 520">
  <defs>
    <radialGradient id="r1" cx="30%" cy="20%" r="60%">
      <stop offset="0" stop-color="#0B1F3B" stop-opacity=".14"/>
      <stop offset="1" stop-color="#0B1F3B" stop-opacity="0"/>
    </radialGradient>
    <radialGradient id="r2" cx="80%" cy="25%" r="55%">
      <stop offset="0" stop-color="#D21F2B" stop-opacity=".12"/>
      <stop offset="1" stop-color="#D21F2B" stop-opacity="0"/>
    </radialGradient>
  </defs>
  <rect width="820" height="520" fill="#ffffff"/>
  <rect width="820" height="520" fill="url(#r1)"/>
  <rect width="820" height="520" fill="url(#r2)"/>
  <g transform="translate(60,70)">
    <rect x="0" y="0" width="700" height="380" rx="26" fill="#f7f8fb" stroke="#e6e8ee"/>
    <rect x="28" y="28" width="250" height="16" rx="8" fill="#0B1F3B" opacity=".85"/>
    <rect x="28" y="58" width="320" height="10" rx="5" fill="#5b6472" opacity=".35"/>
    <rect x="28" y="80" width="290" height="10" rx="5" fill="#5b6472" opacity=".28"/>
    <rect x="28" y="128" width="644" height="96" rx="20" fill="#ffffff" stroke="#e6e8ee"/>
    <rect x="52" y="154" width="200" height="14" rx="7" fill="#0B1F3B" opacity=".65"/>
    <rect x="52" y="178" width="290" height="10" rx="5" fill="#5b6472" opacity=".25"/>
    <rect x="52" y="196" width="240" height="10" rx="5" fill="#5b6472" opacity=".22"/>
    <rect x="28" y="250" width="310" height="104" rx="20" fill="#ffffff" stroke="#e6e8ee"/>
    <rect x="362" y="250" width="310" height="104" rx="20" fill="#ffffff" stroke="#e6e8ee"/>
    <circle cx="80" cy="302" r="18" fill="#0B1F3B" opacity=".12"/>
    <circle cx="414" cy="302" r="18" fill="#D21F2B" opacity=".12"/>
    <rect x="110" y="292" width="170" height="12" rx="6" fill="#0B1F3B" opacity=".55"/>
    <rect x="444" y="292" width="170" height="12" rx="6" fill="#0B1F3B" opacity=".50"/>
    <rect x="110" y="314" width="190" height="10" rx="5" fill="#5b6472" opacity=".22"/>
    <rect x="444" y="314" width="190" height="10" rx="5" fill="#5b6472" opacity=".22"/>
    <rect x="110" y="332" width="140" height="10" rx="5" fill="#5b6472" opacity=".18"/>
    <rect x="444" y="332" width="140" height="10" rx="5" fill="#5b6472" opacity=".18"/>
  </g>
  <text x="60" y="486" font-family="system-ui, -apple-system, Segoe UI, Roboto, Helvetica, Arial" font-size="14" fill="#5b6472">
    Educational-first wellness programs • Provider-directed care • Secure Rx workflow
  </text>
</svg>